<svg width="100" height="100" viewBox="0 0 100 100" fill="none" xmlns="http://www.w3.org/2000/svg">
  <circle cx="50" cy="50" r="48" fill="#F0FDFA"/>
  <path d="M50 2.00001C23.49 2.00001 2 23.49 2 50C2 76.51 23.49 98 50 98C76.51 98 98 76.51 98 50" stroke="#0D9488" stroke-width="4" stroke-linecap="round"/>
  <path d="M49.44 33.52V69.52H54.44V33.52H49.44ZM46.92 33.68C46.12 33.12 45.42 32.68 44.82 32.36C44.22 32.04 43.54 31.88 42.78 31.88C41.46 31.88 40.42 32.32 39.66 33.2C38.9 34.08 38.52 35.2 38.52 36.56C38.52 37.8 38.86 38.84 39.54 39.68C40.22 40.52 41.14 40.94 42.3 40.94C42.78 40.94 43.27 40.85 43.77 40.67L44.25 43.55C43.53 43.83 42.81 43.97 42.09 43.97C40.13 43.97 38.63 43.38 37.59 42.2C36.55 41.02 36.03 39.35 36.03 37.19C36.03 34.91 36.6 33.11 37.74 31.79C38.88 30.47 40.42 29.81 42.36 29.81C43.8 29.81 45.02 30.15 46.02 30.83L46.92 33.68Z" fill="#0D9488"/>
</svg>
